<svg xmlns="http://www.w3.org/2000/svg" xmlns:xlink="http://www.w3.org/1999/xlink" width="500" zoomAndPan="magnify" viewBox="0 0 375 374.999991" height="500" preserveAspectRatio="xMidYMid meet" version="1.0"><defs><g/></defs><g fill="#000000" fill-opacity="1"><g transform="translate(4.136962, 219.528041)"><g><path d="M 22.84375 -72.96875 L 22.84375 -11.703125 C 22.84375 -5.578125 21.34375 -0.835938 18.34375 2.515625 C 15.34375 5.867188 11.421875 7.546875 6.578125 7.546875 C 4.128906 7.546875 1.828125 7.03125 -0.328125 6 C -2.492188 4.96875 -4.515625 3.675781 -6.390625 2.125 L -1.84375 -4.15625 C -0.09375 -2.539062 1.390625 -1.441406 2.609375 -0.859375 C 3.835938 -0.285156 5.226562 0 6.78125 0 C 9.613281 0 11.640625 -1.160156 12.859375 -3.484375 C 14.085938 -5.804688 14.703125 -9.351562 14.703125 -14.125 L 14.703125 -72.96875 Z M 22.84375 -72.96875 "/></g></g></g><g fill="#000000" fill-opacity="1"><g transform="translate(34.516832, 219.528041)"><g><path d="M 15.484375 -72.96875 L 15.484375 -41.703125 L 46.546875 -72.96875 L 57.484375 -72.96875 L 23.21875 -39 L 58.640625 0 L 47.421875 0 L 17.515625 -33.484375 L 15.484375 -31.453125 L 15.484375 0 L 7.359375 0 L 7.359375 -72.96875 Z M 15.484375 -72.96875 "/></g></g></g><g fill="#000000" fill-opacity="1"><g transform="translate(93.631836, 219.528041)"><g><path d="M 52.828125 -76.734375 L 76.4375 -18.28125 L 95.609375 -72.96875 L 104.40625 -72.96875 L 76.4375 3.78125 L 52.828125 -54.96875 L 29.21875 3.78125 L 1.265625 -72.96875 L 10.0625 -72.96875 L 29.21875 -18.28125 Z M 9.96875 0 Z M 9.96875 0 "/></g></g></g><g fill="#000000" fill-opacity="1"><g transform="translate(199.187396, 219.528041)"><g><path d="M 45.1875 -72.96875 L 45.1875 -65.40625 L 15.484375 -65.40625 L 15.484375 -43.734375 L 44.3125 -43.734375 L 44.3125 -36.1875 L 15.484375 -36.1875 L 15.484375 -7.546875 L 45.1875 -7.546875 L 45.1875 0 L 7.359375 0 L 7.359375 -72.96875 Z M 45.1875 -72.96875 "/></g></g></g><g fill="#000000" fill-opacity="1"><g transform="translate(250.85258, 219.528041)"><g><path d="M 34.25 -76.4375 L 67.0625 0 L 58.0625 0 L 49.453125 -20.703125 L 18.28125 -20.703125 L 9.484375 0 L 0.578125 0 Z M 21.578125 -28.25 L 46.25 -28.25 L 34.0625 -57.484375 Z M 13.15625 -72.96875 Z M 13.15625 -72.96875 "/></g></g></g><g fill="#000000" fill-opacity="1"><g transform="translate(318.481684, 219.528041)"><g><path d="M 18.484375 -72.96875 C 35.898438 -72.96875 44.609375 -66.253906 44.609375 -52.828125 C 44.609375 -47.222656 42.976562 -42.597656 39.71875 -38.953125 C 36.457031 -35.304688 31.988281 -33.222656 26.3125 -32.703125 L 49.546875 0 L 39.578125 0 L 17.515625 -32.03125 L 15.484375 -32.03125 L 15.484375 0 L 7.359375 0 L 7.359375 -72.96875 Z M 15.484375 -39.1875 L 19.0625 -39.1875 C 24.800781 -39.1875 29.140625 -40.25 32.078125 -42.375 C 35.015625 -44.507812 36.484375 -47.800781 36.484375 -52.25 C 36.484375 -57.09375 35.046875 -60.492188 32.171875 -62.453125 C 29.304688 -64.421875 25.160156 -65.40625 19.734375 -65.40625 L 15.484375 -65.40625 Z M 15.484375 -39.1875 "/></g></g></g></svg>